<svg width="1200" height="700" viewBox="0 0 1200 700" fill="none" xmlns="http://www.w3.org/2000/svg">
  <rect width="1200" height="700" fill="#F4F7FB"/>
  <rect x="120" y="70" width="960" height="560" rx="24" fill="white" stroke="#DCE1EB" stroke-width="2"/>
  <text x="160" y="120" font-size="30" fill="#111827" font-family="Arial, sans-serif">StyleAI – Virtual Outfit Try-On (Preview)</text>

  <rect x="160" y="170" width="460" height="390" rx="18" fill="#FAFAFC" stroke="#D0D5DD" stroke-width="2"/>
  <text x="190" y="205" font-size="24" fill="#475467" font-family="Arial, sans-serif">Upload your photo</text>
  <rect x="190" y="235" width="400" height="265" fill="white" stroke="#D0D5DD" stroke-width="3"/>
  <text x="310" y="380" font-size="30" fill="#7F56D9" font-family="Arial, sans-serif">Image Preview</text>

  <rect x="650" y="170" width="390" height="390" rx="18" fill="#FAFAFC" stroke="#D0D5DD" stroke-width="2"/>
  <text x="680" y="205" font-size="24" fill="#475467" font-family="Arial, sans-serif">Style: casual</text>
  <rect x="680" y="235" width="330" height="50" rx="12" fill="#111827"/>
  <text x="780" y="267" font-size="20" fill="white" font-family="Arial, sans-serif">Generate Outfit</text>
  <rect x="680" y="315" width="330" height="155" fill="white" stroke="#D0D5DD" stroke-width="3"/>
  <text x="750" y="400" font-size="28" fill="#475467" font-family="Arial, sans-serif">Generated Look</text>

  <rect x="680" y="500" width="100" height="40" rx="10" fill="#111827"/>
  <text x="694" y="525" font-size="16" fill="white" font-family="Arial, sans-serif">Download</text>
  <rect x="790" y="500" width="100" height="40" rx="10" fill="#111827"/>
  <text x="821" y="525" font-size="16" fill="white" font-family="Arial, sans-serif">Share</text>
  <rect x="900" y="500" width="130" height="40" rx="10" fill="#111827"/>
  <text x="915" y="525" font-size="14" fill="white" font-family="Arial, sans-serif">Buy This Outfit</text>
</svg>
